# xmcd CD database file
#
# Track frame offsets:
#        150
#        18710
#        19800
#        36037
#        56948
#        83034
#        100096
#        121064
#        139235
#        157988
#        174088
#        188282
#        209555
#
# Disc length: 3142 seconds
#
# Revision: 0
# Processed by: cddbd v1.5.2PL0 Copyright (c) Steve Scherf et al.
# Submitted via: CUERipper 2.1.5
#
DISCID=a10c440d
DTITLE=Various Artist - Blues Revue Blues Music Sampler May-Jun 2011
DYEAR=2011
DGENRE=
TTITLE0=keb' mo' and taj mahal - am i wrong
TTITLE1=bob jones and the drive - introduction by mike bloomfield
TTITLE2=bob jones and the drive - backroad
TTITLE3=brad vickers and his vestopolitans with special guest bobby radcliff - coming and going
TTITLE4=tab benoit - medicine
TTITLE5=jefferson fox - my brother's keeper
TTITLE6=eric bibb - new home
TTITLE7=soul of john black - my brother
TTITLE8=johnny rawls - memphis still got soul
TTITLE9=victor wainwright and the wildroots - big dogs runnin' this town
TTITLE10=terry garland and li'l ronnie - dude boy boogie
TTITLE11=mississippi fever - too much alcohol
TTITLE12=sonny moorman - old slow blues
EXTD=
EXTT0=
EXTT1=
EXTT2=
EXTT3=
EXTT4=
EXTT5=
EXTT6=
EXTT7=
EXTT8=
EXTT9=
EXTT10=
EXTT11=
EXTT12=
PLAYORDER=
